<svg xmlns="http://www.w3.org/2000/svg" width="22.486" height="22.484" viewBox="0 0 22.486 22.484"><defs><style>.auser-header{fill:#fff;stroke:#fff;stroke-width:0.3px;}</style></defs><g transform="translate(-1115.85 -22.666)"><g transform="translate(1116 22.816)"><path class="auser-header" d="M11.092,0a11.092,11.092,0,0,0,0,22.184q.5,0,1-.045c.308-.028.613-.07.916-.123L13.123,22A11.092,11.092,0,0,0,11.092,0ZM10.2,21.405h-.026c-.288-.025-.573-.064-.856-.113l-.048-.008q-.415-.074-.821-.183l-.066-.017c-.264-.072-.526-.155-.783-.247l-.08-.028c-.253-.093-.5-.2-.745-.309l-.091-.041c-.24-.111-.474-.236-.7-.367l-.1-.055q-.34-.2-.666-.424l-.1-.068c-.214-.151-.422-.312-.624-.481l-.056-.049V15.9A4.072,4.072,0,0,1,8.5,11.831H13.68A4.072,4.072,0,0,1,17.747,15.9v3.118l-.049.041q-.31.259-.637.49l-.087.059q-.33.229-.676.431l-.087.049c-.234.133-.472.259-.714.372l-.084.037c-.246.114-.5.218-.751.312l-.074.026c-.259.093-.521.177-.787.249l-.064.016c-.271.072-.545.133-.822.183l-.048.007c-.283.049-.569.088-.857.114h-.026c-.3.025-.592.039-.891.039S10.5,21.431,10.2,21.405Zm8.286-3.075V15.9a4.812,4.812,0,0,0-4.806-4.806H8.5A4.812,4.812,0,0,0,3.7,15.9V18.33a10.352,10.352,0,1,1,14.789,0Zm0,0"/><path class="auser-header" d="M163.7,64a3.7,3.7,0,1,0,3.7,3.7A3.7,3.7,0,0,0,163.7,64Zm0,6.655a2.958,2.958,0,1,1,2.958-2.958A2.958,2.958,0,0,1,163.7,70.655Zm0,0" transform="translate(-152.605 -61.042)"/></g></g></svg>